<?xml version="1.0" standalone="no"?>
<!DOCTYPE svg PUBLIC "-//W3C//DTD SVG 20010904//EN"
 "http://www.w3.org/TR/2001/REC-SVG-20010904/DTD/svg10.dtd">
<svg version="1.0" xmlns="http://www.w3.org/2000/svg"
 width="512.000000pt" height="512.000000pt" viewBox="0 0 512.000000 512.000000"
 preserveAspectRatio="xMidYMid meet">

<g transform="translate(0.000000,512.000000) scale(0.100000,-0.100000)"
fill="#000000" stroke="none">
<path d="M2435 5114 c-235 -24 -418 -72 -620 -164 -303 -138 -594 -402 -772
-700 -199 -332 -286 -738 -239 -1108 70 -544 392 -1248 950 -2072 211 -312
576 -793 764 -1007 l54 -63 80 98 c508 617 1032 1407 1323 1997 319 647 420
1088 350 1525 -121 757 -714 1350 -1475 1476 -87 14 -343 25 -415 18z m390
-318 c524 -95 951 -454 1135 -955 62 -170 98 -411 86 -576 -39 -524 -417
-1309 -1092 -2270 -136 -194 -372 -509 -383 -513 -11 -4 -219 265 -383 493
-598 832 -973 1571 -1075 2120 -21 110 -23 366 -4 475 85 500 403 914 859
1119 143 64 295 104 482 125 64 8 294 -4 375 -18z"/>
<path d="M2490 4108 c-304 -28 -566 -250 -652 -553 -32 -112 -32 -287 0 -398
99 -350 410 -573 772 -554 333 17 606 239 696 568 27 98 25 281 -5 384 -38
135 -93 227 -201 335 -77 78 -111 104 -180 138 -138 69 -277 95 -430 80z m271
-340 c167 -79 261 -225 263 -408 3 -350 -357 -566 -674 -405 -55 28 -141 111
-175 169 -76 130 -81 306 -11 444 32 64 116 150 180 185 83 46 132 57 241 54
92 -2 106 -5 176 -39z"/>
</g>
</svg>
