<svg width="138" height="46" viewBox="0 0 138 46" fill="none" xmlns="http://www.w3.org/2000/svg">
<path d="M0 10.5C0 7.23841 0 5.60761 0.532843 4.32122C1.2433 2.60602 2.60602 1.2433 4.32122 0.532843C5.60761 0 7.23841 0 10.5 0H127.5C130.762 0 132.392 0 133.679 0.532843C135.394 1.2433 136.757 2.60602 137.467 4.32122C138 5.60761 138 7.23841 138 10.5V35.5C138 38.7616 138 40.3924 137.467 41.6788C136.757 43.394 135.394 44.7567 133.679 45.4672C132.392 46 130.762 46 127.5 46H10.5C7.23841 46 5.60761 46 4.32122 45.4672C2.60602 44.7567 1.2433 43.394 0.532843 41.6788C0 40.3924 0 38.7616 0 35.5V10.5Z" fill="#0C0D10"/>
<path d="M93.7547 22.081V24.7157H92.1032V26.4435H93.7547V32.3142C93.7547 34.3189 94.6615 35.1207 96.943 35.1207C97.3439 35.1207 97.7258 35.073 98.0599 35.0157V33.307C97.7735 33.3357 97.5921 33.3547 97.2771 33.3547C96.2557 33.3547 95.807 32.8774 95.807 31.7892V26.4435H98.0599V24.7157H95.807V22.081H93.7547Z" fill="white"/>
<path d="M103.872 35.2639C106.907 35.2639 108.769 33.2306 108.769 29.8609C108.769 26.5103 106.898 24.4675 103.872 24.4675C100.836 24.4675 98.9652 26.5103 98.9652 29.8609C98.9652 33.2306 100.827 35.2639 103.872 35.2639ZM103.872 33.4407C102.087 33.4407 101.084 32.1329 101.084 29.8609C101.084 27.6081 102.087 26.2908 103.872 26.2908C105.647 26.2908 106.659 27.6081 106.659 29.8609C106.659 32.1233 105.647 33.4407 103.872 33.4407Z" fill="white"/>
<path d="M110.361 35.0635H112.414V28.9254C112.414 27.4649 113.512 26.4817 115.068 26.4817C115.43 26.4817 116.041 26.5485 116.213 26.6058V24.5821C115.994 24.5248 115.602 24.4961 115.297 24.4961C113.941 24.4961 112.786 25.2407 112.49 26.2621H112.337V24.668H110.361V35.0635Z" fill="white"/>
<path d="M121.309 26.2144C122.827 26.2144 123.82 27.274 123.867 28.9064H118.617C118.732 27.2836 119.791 26.2144 121.309 26.2144ZM123.858 32.257C123.476 33.0684 122.626 33.517 121.385 33.517C119.744 33.517 118.684 32.362 118.617 30.5387V30.4242H125.958V29.7082C125.958 26.4435 124.211 24.4675 121.319 24.4675C118.388 24.4675 116.527 26.5772 116.527 29.8991C116.527 33.2211 118.35 35.2639 121.328 35.2639C123.705 35.2639 125.366 34.1184 125.834 32.257H123.858Z" fill="white"/>
<path d="M80.2956 31.2246C80.4539 33.7772 82.5811 35.4097 85.7472 35.4097C89.1309 35.4097 91.2483 33.6981 91.2483 30.9673C91.2483 28.8203 90.0412 27.633 87.1126 26.9503L85.5394 26.5645C83.6793 26.1291 82.9274 25.5454 82.9274 24.5263C82.9274 23.2401 84.0949 22.3991 85.8461 22.3991C87.5083 22.3991 88.656 23.2203 88.8638 24.5362H91.0207C90.8921 22.1319 88.7748 20.4401 85.8758 20.4401C82.7592 20.4401 80.6814 22.1319 80.6814 24.6747C80.6814 26.7723 81.8588 28.0189 84.4412 28.6224L86.2815 29.0677C88.1712 29.5129 89.0023 30.1659 89.0023 31.2543C89.0023 32.5207 87.6963 33.4408 85.9154 33.4408C84.0058 33.4408 82.68 32.5801 82.492 31.2246H80.2956Z" fill="white"/>
<path d="M59.0351 24.4961C57.6223 24.4961 56.4005 25.2025 55.7704 26.3862H55.6177V24.668H53.6417V38.5191H55.6941V33.4884H55.8563C56.4005 34.5862 57.5746 35.2353 59.0542 35.2353C61.6793 35.2353 63.3499 33.1638 63.3499 29.8609C63.3499 26.5581 61.6793 24.4961 59.0351 24.4961ZM58.4528 33.3929C56.7346 33.3929 55.6559 32.0374 55.6559 29.8705C55.6559 27.694 56.7346 26.3385 58.4624 26.3385C60.1997 26.3385 61.2402 27.6654 61.2402 29.8609C61.2402 32.066 60.1997 33.3929 58.4528 33.3929Z" fill="white"/>
<path d="M70.5314 24.4961C69.1186 24.4961 67.8968 25.2025 67.2667 26.3862H67.114V24.668H65.138V38.5191H67.1904V33.4884H67.3527C67.8968 34.5862 69.0709 35.2353 70.5505 35.2353C73.1757 35.2353 74.8462 33.1638 74.8462 29.8609C74.8462 26.5581 73.1757 24.4961 70.5314 24.4961ZM69.9491 33.3929C68.2309 33.3929 67.1522 32.0374 67.1522 29.8705C67.1522 27.694 68.2309 26.3385 69.9587 26.3385C71.696 26.3385 72.7365 27.6654 72.7365 29.8609C72.7365 32.066 71.696 33.3929 69.9491 33.3929Z" fill="white"/>
<path d="M49.9594 35.0635H52.3142L47.1594 20.7864H44.7749L39.6201 35.0635H41.8957L43.2117 31.274H48.6534L49.9594 35.0635ZM45.8534 23.3786H46.0216L48.0894 29.414H43.7756L45.8534 23.3786Z" fill="white"/>
<path d="M40.9988 10.0176V16.905H43.4855C45.5379 16.905 46.7263 15.6401 46.7263 13.4398C46.7263 11.2729 45.5283 10.0176 43.4855 10.0176H40.9988ZM42.0679 10.9913H43.3662C44.7933 10.9913 45.6381 11.8981 45.6381 13.4541C45.6381 15.034 44.8076 15.9313 43.3662 15.9313H42.0679V10.9913Z" fill="white"/>
<path d="M50.3662 17.0052C51.884 17.0052 52.8147 15.9885 52.8147 14.3037C52.8147 12.6284 51.8792 11.607 50.3662 11.607C48.8484 11.607 47.9129 12.6284 47.9129 14.3037C47.9129 15.9885 48.8436 17.0052 50.3662 17.0052ZM50.3662 16.0936C49.4736 16.0936 48.9725 15.4397 48.9725 14.3037C48.9725 13.1773 49.4736 12.5186 50.3662 12.5186C51.2539 12.5186 51.7599 13.1773 51.7599 14.3037C51.7599 15.4349 51.2539 16.0936 50.3662 16.0936Z" fill="white"/>
<path d="M60.7407 11.7072H59.7145L58.7885 15.6735H58.7074L57.6382 11.7072H56.655L55.5859 15.6735H55.5095L54.5788 11.7072H53.5383L54.9702 16.905H56.025L57.0941 13.0771H57.1753L58.2492 16.905H59.3135L60.7407 11.7072Z" fill="white"/>
<path d="M61.9224 16.905H62.9486V13.8646C62.9486 13.0532 63.4307 12.5473 64.1896 12.5473C64.9485 12.5473 65.3112 12.9625 65.3112 13.7978V16.905H66.3374V13.54C66.3374 12.3038 65.6978 11.607 64.538 11.607C63.7552 11.607 63.2398 11.9554 62.9868 12.5329H62.9104V11.7072H61.9224V16.905Z" fill="white"/>
<path d="M67.9535 16.905H68.9797V9.67871H67.9535V16.905Z" fill="white"/>
<path d="M72.8391 17.0052C74.3569 17.0052 75.2876 15.9885 75.2876 14.3037C75.2876 12.6284 74.3521 11.607 72.8391 11.607C71.3213 11.607 70.3858 12.6284 70.3858 14.3037C70.3858 15.9885 71.3166 17.0052 72.8391 17.0052ZM72.8391 16.0936C71.9466 16.0936 71.4454 15.4397 71.4454 14.3037C71.4454 13.1773 71.9466 12.5186 72.8391 12.5186C73.7269 12.5186 74.2328 13.1773 74.2328 14.3037C74.2328 15.4349 73.7269 16.0936 72.8391 16.0936Z" fill="white"/>
<path d="M78.3452 16.127C77.7868 16.127 77.3811 15.8549 77.3811 15.3872C77.3811 14.929 77.7056 14.6855 78.4216 14.6378L79.6912 14.5567V14.991C79.6912 15.6354 79.1184 16.127 78.3452 16.127ZM78.0827 16.9909C78.7652 16.9909 79.3332 16.6949 79.6434 16.1747H79.7246V16.905H80.7126V13.3539C80.7126 12.2561 79.9775 11.607 78.6745 11.607C77.4956 11.607 76.6556 12.1797 76.5506 13.0723H77.5433C77.6579 12.7048 78.054 12.4948 78.6268 12.4948C79.3284 12.4948 79.6912 12.805 79.6912 13.3539V13.8025L78.2831 13.8837C77.047 13.96 76.3501 14.4994 76.3501 15.4349C76.3501 16.3847 77.0804 16.9909 78.0827 16.9909Z" fill="white"/>
<path d="M84.1949 16.9909C84.9109 16.9909 85.517 16.652 85.8273 16.084H85.9084V16.905H86.8916V9.67871H85.8655V12.5329H85.7891C85.5075 11.9602 84.9061 11.6213 84.1949 11.6213C82.8824 11.6213 82.0375 12.6618 82.0375 14.3037C82.0375 15.9504 82.8728 16.9909 84.1949 16.9909ZM84.4861 12.5425C85.3452 12.5425 85.8845 13.225 85.8845 14.3085C85.8845 15.3967 85.35 16.0697 84.4861 16.0697C83.6174 16.0697 83.0971 15.4062 83.0971 14.3037C83.0971 13.2107 83.6222 12.5425 84.4861 12.5425Z" fill="white"/>
<path d="M93.5461 17.0052C95.0639 17.0052 95.9946 15.9885 95.9946 14.3037C95.9946 12.6284 95.0591 11.607 93.5461 11.607C92.0283 11.607 91.0928 12.6284 91.0928 14.3037C91.0928 15.9885 92.0235 17.0052 93.5461 17.0052ZM93.5461 16.0936C92.6535 16.0936 92.1524 15.4397 92.1524 14.3037C92.1524 13.1773 92.6535 12.5186 93.5461 12.5186C94.4339 12.5186 94.9398 13.1773 94.9398 14.3037C94.9398 15.4349 94.4339 16.0936 93.5461 16.0936Z" fill="white"/>
<path d="M97.353 16.905H98.3792V13.8646C98.3792 13.0532 98.8612 12.5473 99.6201 12.5473C100.379 12.5473 100.742 12.9625 100.742 13.7978V16.905H101.768V13.54C101.768 12.3038 101.128 11.607 99.9686 11.607C99.1858 11.607 98.6703 11.9554 98.4174 12.5329H98.341V11.7072H97.353V16.905Z" fill="white"/>
<path d="M106.494 10.4137V11.7311H105.668V12.595H106.494V15.5303C106.494 16.5327 106.948 16.9336 108.088 16.9336C108.289 16.9336 108.48 16.9097 108.647 16.8811V16.0267C108.504 16.0411 108.413 16.0506 108.255 16.0506C107.745 16.0506 107.52 15.8119 107.52 15.2678V12.595H108.647V11.7311H107.52V10.4137H106.494Z" fill="white"/>
<path d="M110.024 16.905H111.05V13.8694C111.05 13.0818 111.518 12.552 112.358 12.552C113.084 12.552 113.47 12.972 113.47 13.8025V16.905H114.496V13.5496C114.496 12.3134 113.814 11.6118 112.707 11.6118C111.924 11.6118 111.375 11.9602 111.122 12.5425H111.041V9.67871H110.024V16.905Z" fill="white"/>
<path d="M118.198 12.4804C118.957 12.4804 119.454 13.0102 119.478 13.8264H116.852C116.91 13.015 117.439 12.4804 118.198 12.4804ZM119.473 15.5017C119.282 15.9074 118.857 16.1317 118.237 16.1317C117.416 16.1317 116.886 15.5542 116.852 14.6426V14.5853H120.523V14.2273C120.523 12.595 119.649 11.607 118.203 11.607C116.738 11.607 115.807 12.6618 115.807 14.3228C115.807 15.9838 116.719 17.0052 118.208 17.0052C119.396 17.0052 120.227 16.4324 120.461 15.5017H119.473Z" fill="white"/>
<path d="M28.4844 23.3459C28.5093 21.4128 29.5475 19.5836 31.1945 18.571C30.1555 17.0872 28.4152 16.1464 26.6046 16.0897C24.6735 15.887 22.8014 17.2453 21.8173 17.2453C20.8142 17.2453 19.2991 16.1098 17.6675 16.1434C15.5409 16.2121 13.5583 17.4212 12.5237 19.2805C10.2996 23.1311 11.9586 28.7903 14.0891 31.903C15.155 33.4271 16.4008 35.1296 18.0308 35.0692C19.626 35.0031 20.2217 34.0521 22.1471 34.0521C24.0547 34.0521 24.6137 35.0692 26.2768 35.0309C27.9884 35.0031 29.0668 33.4999 30.0954 31.9613C30.8613 30.8753 31.4506 29.6751 31.8416 28.405C29.8301 27.5542 28.4868 25.5299 28.4844 23.3459Z" fill="white"/>
<path d="M25.343 14.0427C26.2763 12.9224 26.7361 11.4824 26.6247 10.0285C25.1989 10.1783 23.8819 10.8597 22.936 11.9371C22.0111 12.9897 21.5297 14.4044 21.6207 15.8027C23.0471 15.8173 24.4493 15.1544 25.343 14.0427Z" fill="white"/>
<path d="M4.32122 45.4672L3.93853 46.391L4.32122 45.4672ZM0.532843 41.6788L-0.391036 42.0615L0.532843 41.6788ZM137.467 41.6788L138.391 42.0615L137.467 41.6788ZM133.679 45.4672L134.061 46.391L133.679 45.4672ZM133.679 0.532843L133.296 1.45672L133.679 0.532843ZM137.467 4.32122L136.543 4.7039L137.467 4.32122ZM10.5 1H127.5V-1H10.5V1ZM137 10.5V35.5H139V10.5H137ZM127.5 45H10.5V47H127.5V45ZM1 35.5V10.5H-1V35.5H1ZM10.5 45C8.85552 45 7.67224 44.9995 6.73798 44.9357C5.8127 44.8726 5.20494 44.7508 4.7039 44.5433L3.93853 46.391C4.72389 46.7163 5.57473 46.861 6.60184 46.9311C7.61997 47.0005 8.88288 47 10.5 47V45ZM-1 35.5C-1 37.1171 -1.00054 38.38 -0.931075 39.3982C-0.860996 40.4253 -0.716341 41.2761 -0.391036 42.0615L1.45672 41.2961C1.24918 40.7951 1.12742 40.1873 1.06429 39.262C1.00054 38.3278 1 37.1445 1 35.5H-1ZM4.7039 44.5433C3.23373 43.9343 2.06569 42.7663 1.45672 41.2961L-0.391036 42.0615C0.420915 44.0217 1.97831 45.5791 3.93853 46.391L4.7039 44.5433ZM137 35.5C137 37.1445 136.999 38.3278 136.936 39.262C136.873 40.1873 136.751 40.7951 136.543 41.2961L138.391 42.0615C138.716 41.2761 138.861 40.4253 138.931 39.3982C139.001 38.38 139 37.1171 139 35.5H137ZM127.5 47C129.117 47 130.38 47.0005 131.398 46.9311C132.425 46.861 133.276 46.7163 134.061 46.391L133.296 44.5433C132.795 44.7508 132.187 44.8726 131.262 44.9357C130.328 44.9995 129.144 45 127.5 45V47ZM136.543 41.2961C135.934 42.7663 134.766 43.9343 133.296 44.5433L134.061 46.391C136.022 45.5791 137.579 44.0217 138.391 42.0615L136.543 41.2961ZM127.5 1C129.144 1 130.328 1.00054 131.262 1.06429C132.187 1.12742 132.795 1.24918 133.296 1.45672L134.061 -0.391036C133.276 -0.716341 132.425 -0.860996 131.398 -0.931075C130.38 -1.00054 129.117 -1 127.5 -1V1ZM139 10.5C139 8.88289 139.001 7.61997 138.931 6.60184C138.861 5.57473 138.716 4.72389 138.391 3.93853L136.543 4.7039C136.751 5.20494 136.873 5.8127 136.936 6.73798C136.999 7.67225 137 8.85552 137 10.5H139ZM133.296 1.45672C134.766 2.06569 135.934 3.23373 136.543 4.7039L138.391 3.93853C137.579 1.97831 136.022 0.420915 134.061 -0.391036L133.296 1.45672ZM10.5 -1C8.88289 -1 7.61997 -1.00054 6.60184 -0.931075C5.57473 -0.860996 4.72389 -0.716341 3.93853 -0.391036L4.7039 1.45672C5.20494 1.24918 5.8127 1.12742 6.73798 1.06429C7.67225 1.00054 8.85552 1 10.5 1V-1ZM1 10.5C1 8.85552 1.00054 7.67225 1.06429 6.73798C1.12742 5.8127 1.24918 5.20494 1.45672 4.7039L-0.391036 3.93853C-0.716341 4.72389 -0.860996 5.57473 -0.931075 6.60184C-1.00054 7.61997 -1 8.88289 -1 10.5H1ZM3.93853 -0.391036C1.97831 0.420915 0.420915 1.97831 -0.391036 3.93853L1.45672 4.7039C2.06569 3.23373 3.23373 2.06569 4.7039 1.45672L3.93853 -0.391036Z" fill="#A6A6A6"/>
</svg>
