<svg width="156" height="46" viewBox="0 0 156 46" fill="none" xmlns="http://www.w3.org/2000/svg">
<path d="M0 5C0 2.23858 2.23858 0 5 0H151C153.761 0 156 2.23858 156 5V41C156 43.7614 153.761 46 151 46H5C2.23857 46 0 43.7614 0 41V5Z" fill="black"/>
<path d="M78.7349 25.0138C76.017 25.0138 73.8018 27.0711 73.8018 29.9047C73.8018 32.7211 76.017 34.7957 78.7349 34.7957C81.4539 34.7957 83.6691 32.7211 83.6691 29.9047C83.668 27.0711 81.4528 25.0138 78.7349 25.0138ZM78.7349 32.8706C77.2454 32.8706 75.9616 31.6481 75.9616 29.9059C75.9616 28.1452 77.2465 26.9412 78.7349 26.9412C80.2244 26.9412 81.5082 28.1452 81.5082 29.9059C81.5082 31.647 80.2244 32.8706 78.7349 32.8706ZM67.972 25.0138C65.2542 25.0138 63.039 27.0711 63.039 29.9047C63.039 32.7211 65.2542 34.7957 67.972 34.7957C70.6911 34.7957 72.9063 32.7211 72.9063 29.9047C72.9063 27.0711 70.6911 25.0138 67.972 25.0138ZM67.972 32.8706C66.4825 32.8706 65.1987 31.6481 65.1987 29.9059C65.1987 28.1452 66.4837 26.9412 67.972 26.9412C69.4616 26.9412 70.7454 28.1452 70.7454 29.9059C70.7465 31.647 69.4616 32.8706 67.972 32.8706ZM55.1708 26.5157V28.5903H60.1605C60.0114 29.7575 59.6208 30.6097 59.0246 31.2019C58.2989 31.9241 57.163 32.7211 55.1708 32.7211C52.0993 32.7211 49.6981 30.2566 49.6981 27.1999C49.6981 24.1432 52.0993 21.6788 55.1708 21.6788C56.8279 21.6788 58.0377 22.3274 58.931 23.1611L60.402 21.6972C59.154 20.5115 57.4981 19.6042 55.1708 19.6042C50.9634 19.6042 47.4263 23.0128 47.4263 27.1999C47.4263 31.3871 50.9634 34.7957 55.1708 34.7957C57.4415 34.7957 59.1552 34.0539 60.4945 32.6647C61.8719 31.2939 62.3006 29.3665 62.3006 27.8106C62.3006 27.3299 62.2636 26.8848 62.1885 26.5145H55.1708V26.5157ZM107.527 28.1268C107.118 27.0343 105.87 25.0138 103.319 25.0138C100.788 25.0138 98.6833 26.9964 98.6833 29.9047C98.6833 32.6463 100.769 34.7957 103.561 34.7957C105.813 34.7957 107.116 33.4249 107.657 32.6279L105.982 31.5159C105.424 32.3312 104.66 32.8683 103.561 32.8683C102.463 32.8683 101.681 32.368 101.178 31.3859L107.75 28.6811L107.527 28.1268ZM100.824 29.7575C100.769 27.8669 102.296 26.9044 103.394 26.9044C104.251 26.9044 104.976 27.331 105.219 27.9417L100.824 29.7575ZM95.4824 34.5001H97.6409V20.124H95.4824V34.5001ZM91.944 26.1074H91.8701C91.3859 25.5324 90.4545 25.0138 89.2828 25.0138C86.8249 25.0138 84.5728 27.1631 84.5728 29.9243C84.5728 32.6659 86.8249 34.7968 89.2828 34.7968C90.4557 34.7968 91.3859 34.2782 91.8701 33.6859H91.944V34.3897C91.944 36.2608 90.9387 37.2613 89.3198 37.2613C87.9978 37.2613 87.1785 36.3171 86.8434 35.5202L84.9633 36.2987C85.503 37.5948 86.9359 39.1887 89.3198 39.1887C91.8516 39.1887 93.9928 37.7063 93.9928 34.093V25.3116H91.9452V26.1074H91.944ZM89.4689 32.8706C87.9793 32.8706 86.7325 31.6286 86.7325 29.9243C86.7325 28.2004 87.9793 26.9412 89.4689 26.9412C90.9387 26.9412 92.0931 28.2004 92.0931 29.9243C92.0931 31.6286 90.9387 32.8706 89.4689 32.8706ZM117.642 20.124H112.476V34.5001H114.631V29.0537H117.641C120.031 29.0537 122.381 27.3322 122.381 24.5894C122.381 21.8467 120.032 20.124 117.642 20.124ZM117.698 27.0527H114.631V22.125H117.698C119.31 22.125 120.225 23.4532 120.225 24.5894C120.225 25.7026 119.31 27.0527 117.698 27.0527ZM131.024 24.9885C129.463 24.9885 127.846 25.6727 127.177 27.1896L129.091 27.9842C129.5 27.1896 130.262 26.9297 131.061 26.9297C132.176 26.9297 133.309 27.5955 133.328 28.7789V28.9272C132.937 28.7053 132.101 28.3729 131.079 28.3729C129.017 28.3729 126.916 29.5011 126.916 31.609C126.916 33.533 128.608 34.7715 130.503 34.7715C131.952 34.7715 132.751 34.1241 133.253 33.3651H133.327V34.4748H135.409V28.9629C135.41 26.4122 133.494 24.9885 131.024 24.9885ZM130.763 32.8671C130.058 32.8671 129.072 32.5152 129.072 31.6458C129.072 30.5361 130.299 30.1106 131.359 30.1106C132.305 30.1106 132.752 30.3141 133.328 30.5913C133.16 31.9241 132.008 32.8671 130.763 32.8671ZM142.992 25.3024L140.52 31.5354H140.446L137.881 25.3024H135.558L139.405 34.0137L137.212 38.8598H139.46L145.39 25.3024H142.992ZM123.572 34.5001H125.727V20.124H123.572V34.5001Z" fill="white"/>
<path d="M54.7943 11.7794C54.7943 12.7431 54.5077 13.5101 53.9334 14.0828C53.2816 14.7636 52.4312 15.104 51.3865 15.104C50.3858 15.104 49.5342 14.759 48.8351 14.069C48.1348 13.3779 47.7847 12.5223 47.7847 11.5011C47.7847 10.4787 48.1348 9.62311 48.8351 8.93311C49.5342 8.24196 50.3858 7.89696 51.3865 7.89696C51.8834 7.89696 52.3584 7.99356 52.809 8.18561C53.2608 8.37881 53.6225 8.63526 53.8929 8.95611L53.284 9.56331C52.8252 9.01706 52.1931 8.74451 51.3854 8.74451C50.6551 8.74451 50.0241 8.99981 49.4914 9.51041C48.9587 10.021 48.6929 10.6846 48.6929 11.4999C48.6929 12.3153 48.9587 12.9788 49.4914 13.4894C50.0241 14 50.6551 14.2553 51.3854 14.2553C52.1596 14.2553 52.8056 13.9989 53.3221 13.4848C53.6572 13.1502 53.8513 12.6844 53.9033 12.0876H51.3854V11.2584H54.7446C54.7792 11.439 54.7943 11.6126 54.7943 11.7794Z" fill="white"/>
<path d="M60.1215 8.89753H56.9645V11.0848H59.8118V11.914H56.9645V14.1013H60.1215V14.95H56.0736V8.04998H60.1215V8.89753Z" fill="white"/>
<path d="M63.8781 14.95H62.9871V8.89753H61.0504V8.04998H65.8148V8.89753H63.8781V14.95Z" fill="white"/>
<path d="M69.2618 14.95V8.04998H70.1527V14.95H69.2618Z" fill="white"/>
<path d="M74.1037 14.95H73.2128V8.89753H71.2761V8.04998H76.0404V8.89753H74.1037V14.95Z" fill="white"/>
<path d="M85.0593 14.0587C84.3775 14.7556 83.5305 15.1041 82.5171 15.1041C81.5036 15.1041 80.6566 14.7556 79.976 14.0587C79.2942 13.3618 78.9545 12.5085 78.9545 11.5C78.9545 10.4914 79.2942 9.63811 79.976 8.94121C80.6566 8.24431 81.5036 7.89471 82.5171 7.89471C83.5247 7.89471 84.3706 8.24546 85.0547 8.94581C85.7388 9.64616 86.0808 10.4972 86.0808 11.5C86.0808 12.5085 85.7399 13.3618 85.0593 14.0587ZM80.6335 13.4803C81.1466 13.9978 81.774 14.2554 82.5171 14.2554C83.2601 14.2554 83.8887 13.9966 84.4006 13.4803C84.9137 12.9628 85.1714 12.3027 85.1714 11.5C85.1714 10.6973 84.9137 10.0372 84.4006 9.51966C83.8887 9.00216 83.2601 8.74456 82.5171 8.74456C81.774 8.74456 81.1466 9.00331 80.6335 9.51966C80.1216 10.0372 79.8639 10.6973 79.8639 11.5C79.8639 12.3027 80.1216 12.9628 80.6335 13.4803Z" fill="white"/>
<path d="M87.3311 14.95V8.04998H88.415L91.7846 13.417H91.8228L91.7846 12.0876V8.04998H92.6756V14.95H91.7453L88.2198 9.32188H88.1816L88.2198 10.6513V14.95H87.3311Z" fill="white"/>
<path d="M54.7943 11.7794C54.7943 12.7431 54.5077 13.5101 53.9334 14.0828C53.2816 14.7636 52.4312 15.104 51.3865 15.104C50.3858 15.104 49.5342 14.759 48.8351 14.069C48.1348 13.3779 47.7847 12.5223 47.7847 11.5011C47.7847 10.4787 48.1348 9.62311 48.8351 8.93311C49.5342 8.24196 50.3858 7.89696 51.3865 7.89696C51.8834 7.89696 52.3584 7.99356 52.809 8.18561C53.2608 8.37881 53.6225 8.63526 53.8929 8.95611L53.284 9.56331C52.8252 9.01706 52.1931 8.74451 51.3854 8.74451C50.6551 8.74451 50.0241 8.99981 49.4914 9.51041C48.9587 10.021 48.6929 10.6846 48.6929 11.4999C48.6929 12.3153 48.9587 12.9788 49.4914 13.4894C50.0241 14 50.6551 14.2553 51.3854 14.2553C52.1596 14.2553 52.8056 13.9989 53.3221 13.4848C53.6572 13.1502 53.8513 12.6844 53.9033 12.0876H51.3854V11.2584H54.7446C54.7792 11.439 54.7943 11.6126 54.7943 11.7794Z" stroke="white" stroke-width="0.2" stroke-miterlimit="10"/>
<path d="M60.1215 8.89753H56.9645V11.0848H59.8118V11.914H56.9645V14.1013H60.1215V14.95H56.0736V8.04998H60.1215V8.89753Z" stroke="white" stroke-width="0.2" stroke-miterlimit="10"/>
<path d="M63.8781 14.95H62.9871V8.89753H61.0504V8.04998H65.8148V8.89753H63.8781V14.95Z" stroke="white" stroke-width="0.2" stroke-miterlimit="10"/>
<path d="M69.2618 14.95V8.04998H70.1527V14.95H69.2618Z" stroke="white" stroke-width="0.2" stroke-miterlimit="10"/>
<path d="M74.1037 14.95H73.2128V8.89753H71.2761V8.04998H76.0404V8.89753H74.1037V14.95Z" stroke="white" stroke-width="0.2" stroke-miterlimit="10"/>
<path d="M85.0593 14.0587C84.3775 14.7556 83.5305 15.1041 82.5171 15.1041C81.5036 15.1041 80.6566 14.7556 79.976 14.0587C79.2942 13.3618 78.9545 12.5085 78.9545 11.5C78.9545 10.4914 79.2942 9.63811 79.976 8.94121C80.6566 8.24431 81.5036 7.89471 82.5171 7.89471C83.5247 7.89471 84.3706 8.24546 85.0547 8.94581C85.7388 9.64616 86.0808 10.4972 86.0808 11.5C86.0808 12.5085 85.7399 13.3618 85.0593 14.0587ZM80.6335 13.4803C81.1466 13.9978 81.774 14.2554 82.5171 14.2554C83.2601 14.2554 83.8887 13.9966 84.4006 13.4803C84.9137 12.9628 85.1714 12.3027 85.1714 11.5C85.1714 10.6973 84.9137 10.0372 84.4006 9.51966C83.8887 9.00216 83.2601 8.74456 82.5171 8.74456C81.774 8.74456 81.1466 9.00331 80.6335 9.51966C80.1216 10.0372 79.8639 10.6973 79.8639 11.5C79.8639 12.3027 80.1216 12.9628 80.6335 13.4803Z" stroke="white" stroke-width="0.2" stroke-miterlimit="10"/>
<path d="M87.3311 14.95V8.04998H88.415L91.7846 13.417H91.8228L91.7846 12.0876V8.04998H92.6756V14.95H91.7453L88.2198 9.32188H88.1816L88.2198 10.6513V14.95H87.3311Z" stroke="white" stroke-width="0.2" stroke-miterlimit="10"/>
<g filter="url(#filter0_ii_3_1230)">
<path d="M12.0594 8.66867C11.7232 9.02287 11.5244 9.57257 11.5244 10.2844V35.7178C11.5244 36.4308 11.7232 36.9794 12.0594 37.3336L12.1449 37.4164L26.4611 23.169V23.0011V22.8332L12.1449 8.58472L12.0594 8.66867Z" fill="url(#paint0_linear_3_1230)"/>
<path d="M31.2325 27.9197L26.4612 23.169V23.0011V22.8332L31.2336 18.0837L31.3411 18.1447L36.9952 21.3417C38.6095 22.2548 38.6095 23.7486 36.9952 24.6629L31.3411 27.8599L31.2325 27.9197Z" fill="url(#paint1_linear_3_1230)"/>
<g filter="url(#filter1_i_3_1230)">
<path d="M31.3409 27.8587L26.4599 23.0011L12.0593 37.3336C12.5909 37.8948 13.4703 37.9638 14.4606 37.4049L31.3409 27.8587Z" fill="url(#paint2_linear_3_1230)"/>
</g>
<path d="M31.3409 18.1435L14.4606 8.59852C13.4703 8.03847 12.5909 8.10862 12.0593 8.66982L26.461 23.0023L31.3409 18.1435Z" fill="url(#paint3_linear_3_1230)"/>
</g>
<path d="M5 1H151V-1H5V1ZM155 5V41H157V5H155ZM151 45H5V47H151V45ZM1 41V5H-1V41H1ZM5 45C2.79086 45 1 43.2091 1 41H-1C-1 44.3137 1.68629 47 5 47V45ZM155 41C155 43.2091 153.209 45 151 45V47C154.314 47 157 44.3137 157 41H155ZM151 1C153.209 1 155 2.79086 155 5H157C157 1.68629 154.314 -1 151 -1V1ZM5 -1C1.68629 -1 -1 1.68629 -1 5H1C1 2.79086 2.79086 1 5 1V-1Z" fill="#A6A6A6"/>
<defs>
<filter id="filter0_ii_3_1230" x="11.5244" y="8.21204" width="26.6816" height="29.5789" filterUnits="userSpaceOnUse" color-interpolation-filters="sRGB">
<feFlood flood-opacity="0" result="BackgroundImageFix"/>
<feBlend mode="normal" in="SourceGraphic" in2="BackgroundImageFix" result="shape"/>
<feColorMatrix in="SourceAlpha" type="matrix" values="0 0 0 0 0 0 0 0 0 0 0 0 0 0 0 0 0 0 127 0" result="hardAlpha"/>
<feOffset dy="-0.15"/>
<feComposite in2="hardAlpha" operator="arithmetic" k2="-1" k3="1"/>
<feColorMatrix type="matrix" values="0 0 0 0 0 0 0 0 0 0 0 0 0 0 0 0 0 0 0.12 0"/>
<feBlend mode="normal" in2="shape" result="effect1_innerShadow_3_1230"/>
<feColorMatrix in="SourceAlpha" type="matrix" values="0 0 0 0 0 0 0 0 0 0 0 0 0 0 0 0 0 0 127 0" result="hardAlpha"/>
<feOffset dy="0.15"/>
<feComposite in2="hardAlpha" operator="arithmetic" k2="-1" k3="1"/>
<feColorMatrix type="matrix" values="0 0 0 0 1 0 0 0 0 1 0 0 0 0 1 0 0 0 0.25 0"/>
<feBlend mode="normal" in2="effect1_innerShadow_3_1230" result="effect2_innerShadow_3_1230"/>
</filter>
<filter id="filter1_i_3_1230" x="12.0593" y="23.0011" width="19.2815" height="14.7898" filterUnits="userSpaceOnUse" color-interpolation-filters="sRGB">
<feFlood flood-opacity="0" result="BackgroundImageFix"/>
<feBlend mode="normal" in="SourceGraphic" in2="BackgroundImageFix" result="shape"/>
<feColorMatrix in="SourceAlpha" type="matrix" values="0 0 0 0 0 0 0 0 0 0 0 0 0 0 0 0 0 0 127 0" result="hardAlpha"/>
<feOffset dy="-0.15"/>
<feComposite in2="hardAlpha" operator="arithmetic" k2="-1" k3="1"/>
<feColorMatrix type="matrix" values="0 0 0 0 0 0 0 0 0 0 0 0 0 0 0 0 0 0 0.08 0"/>
<feBlend mode="normal" in2="shape" result="effect1_innerShadow_3_1230"/>
</filter>
<linearGradient id="paint0_linear_3_1230" x1="25.1921" y1="10.0153" x2="5.89302" y2="29.4076" gradientUnits="userSpaceOnUse">
<stop stop-color="#00A0FF"/>
<stop offset="0.0066" stop-color="#00A1FF"/>
<stop offset="0.2601" stop-color="#00BEFF"/>
<stop offset="0.5122" stop-color="#00D2FF"/>
<stop offset="0.7604" stop-color="#00DFFF"/>
<stop offset="1" stop-color="#00E3FF"/>
</linearGradient>
<linearGradient id="paint1_linear_3_1230" x1="39.0966" y1="23.0011" x2="11.1369" y2="23.0011" gradientUnits="userSpaceOnUse">
<stop stop-color="#FFE000"/>
<stop offset="0.4087" stop-color="#FFBD00"/>
<stop offset="0.7754" stop-color="#FFA500"/>
<stop offset="1" stop-color="#FF9C00"/>
</linearGradient>
<linearGradient id="paint2_linear_3_1230" x1="28.6902" y1="25.6391" x2="2.51822" y2="51.9375" gradientUnits="userSpaceOnUse">
<stop stop-color="#FF3A44"/>
<stop offset="1" stop-color="#C31162"/>
</linearGradient>
<linearGradient id="paint3_linear_3_1230" x1="8.4325" y1="0.203294" x2="20.119" y2="11.9463" gradientUnits="userSpaceOnUse">
<stop stop-color="#32A071"/>
<stop offset="0.0685" stop-color="#2DA771"/>
<stop offset="0.4762" stop-color="#15CF74"/>
<stop offset="0.8009" stop-color="#06E775"/>
<stop offset="1" stop-color="#00F076"/>
</linearGradient>
</defs>
</svg>
